# xmcd
#
# Track frame offsets: 
#        150
#        14046
#        27307
#        45208
#        61982
#        77181
#        92780
#        107885
#        118209
#        142924
#        161213
#        178467
#        192457
#        208773
#        224489
#        245127
#
# Disc length: 3470 seconds
#
# Revision: 3
# Processed by: cddbd v1.5.2PL0 Copyright (c) Steve Scherf et al.
# Submitted via: ExactAudioCopy v1.3
#
DISCID=f80d8c10
DTITLE=Jimmy Buffett - License To Chill
DYEAR=2004
DGENRE=Country
TTITLE0=Hey Good Lookin (w-Clint Black, Kenny Chesney, Alan Jackson, T
TTITLE0=oby Keith and George Strait)
TTITLE1=Boats To Build (With Alan Jackson)
TTITLE2=License To Chill (With Kenny Chesney)
TTITLE3=Coast Of Carolina
TTITLE4=Piece Of Work (With Toby Keith)
TTITLE5=Anything Anytime Anywhere
TTITLE6=Trip Around The Sun (With Martina McBride)
TTITLE7=Simply Complicated
TTITLE8=Coastal Confessions
TTITLE9=Sea Of Heartbreak (With George Strait)
TTITLE10=Conky Tonkin (With Clint Black)
TTITLE11=Playin The Loser Again (With Bill Withers)
TTITLE12=Window On The World
TTITLE13=Someone I Used To Love (With Nanci Griffith)
TTITLE14=Scarlet Begonias
TTITLE15=Back To The Island
EXTD=
EXTT0=
EXTT1=
EXTT2=
EXTT3=
EXTT4=
EXTT5=
EXTT6=
EXTT7=
EXTT8=
EXTT9=
EXTT10=
EXTT11=
EXTT12=
EXTT13=
EXTT14=
EXTT15=
PLAYORDER=
